<svg width="1024" height="1024" viewBox="0 0 1024 1024" fill="none" xmlns="http://www.w3.org/2000/svg">
<path d="M325.909 526.351L249.453 739.875L203.771 752.025L222.706 590.705L162.293 763.057L116.892 775.133L139.819 575.846L174.01 566.752L149.372 737.697L214.367 556.018L251.361 546.179L231.207 715.931L292.558 535.221L325.909 526.351ZM441.482 495.612L430.279 525.151L375.069 539.836L360.813 598.984L409.858 585.939L402.892 614.073L354.127 627.043L338.987 689.222L399.242 673.196L391.931 701.98L296.924 727.249L346.755 520.806L441.482 495.612ZM501.936 479.532L452.385 685.901L417.073 695.293L466.904 488.85L501.936 479.532ZM605.557 448.058C625.548 442.741 641.023 446.174 651.98 458.357L629.73 482.168C625.455 478.272 621.194 475.864 616.947 474.944C612.887 473.973 607.774 474.308 601.609 475.948C588.904 479.327 577.711 487.802 568.03 501.374C558.371 514.753 550.608 530.611 544.742 548.945C539.085 567.038 535.242 585.115 533.214 603.175C531.703 616.623 532.647 625.971 536.046 631.218C539.631 636.415 545.534 637.921 553.755 635.734C562.162 633.498 570.966 628.547 580.164 620.882L593.127 565.992L571.547 571.731L575.182 544.204L633.756 528.625L610.021 628.597C589.101 647.022 568.458 658.943 548.093 664.359C529.035 669.428 515.235 667.227 506.692 657.757C498.149 648.287 495.205 631.736 497.859 608.105C500.448 585.05 506.354 562.324 515.576 539.928C525.006 517.29 537.357 497.696 552.629 481.147C568.109 464.355 585.752 453.326 605.557 448.058ZM670.788 627.811L635.476 637.204L685.307 430.761L720.339 421.443L700.379 504.755L749.704 491.635L769.665 408.324L804.977 398.932L755.426 605.3L720.113 614.692L742.479 522.074L693.153 535.193L670.788 627.811ZM943.389 362.118L932.52 393.526L893.284 403.962L850.958 579.891L815.646 589.283L857.972 413.354L816.494 424.386L823.719 393.947L943.389 362.118Z" fill="#DDDDDD"/>
<path d="M197.519 355.773C216.576 350.704 230.632 351.439 239.685 357.978C248.947 364.275 252.607 376.069 250.665 393.36C249.111 407.193 244.978 420.594 238.265 433.562C231.573 446.339 222.234 457.676 210.247 467.574C198.26 477.472 183.952 484.633 167.323 489.056L154.151 492.559L136.757 565.123L101.445 574.515L151.276 368.072L197.519 355.773ZM170.959 461.529C184.972 457.802 195.288 450.678 201.907 440.157C208.735 429.394 212.926 417.097 214.479 403.264C215.558 393.657 214.176 387.408 210.332 384.517C206.674 381.575 200.268 381.322 191.113 383.757L179.623 386.813L161.15 464.138L170.959 461.529ZM366.951 451.057C364.248 462.214 359.493 473.077 352.687 483.648C345.902 494.026 337.454 503.076 327.343 510.798C317.232 518.52 305.823 524.07 293.118 527.449C275.556 532.12 262.643 530.895 254.38 523.774C246.304 516.602 243.086 505.716 244.726 491.115C245.114 487.656 245.761 484.316 246.667 481.093L282.307 333.222L317.339 323.904L281.311 475.233C280.592 478.407 280.168 480.57 280.038 481.722C279.261 488.639 280.328 493.667 283.238 496.807C286.356 499.706 291.465 500.211 298.565 498.322C307.159 496.036 314.292 491.437 319.962 484.523C325.633 477.61 329.618 469.561 331.919 460.375L367.505 310.561L402.818 301.169L366.951 451.057ZM534.086 314.343C532.553 327.984 528.007 341.029 520.446 353.477C512.907 365.734 502.533 376.601 489.324 386.078L508.038 466.372L471.605 476.063L456.781 402.282L439.438 406.616L419.477 489.927L384.165 499.319L433.996 292.877L479.678 280.726C499.67 275.409 514.131 275.756 523.062 281.768C532.181 287.731 535.855 298.589 534.086 314.343ZM458.11 375.928C470.628 372.599 480.049 366.179 486.374 356.668C492.699 347.158 496.508 336.639 497.803 325.112C498.752 316.658 497.377 311.153 493.677 308.596C490.184 305.797 484.235 305.515 475.827 307.752L462.375 311.329L446.059 379.133L458.11 375.928ZM670.22 230.048L659.017 259.587L603.807 274.272L589.551 333.42L638.595 320.375L631.629 348.509L582.865 361.479L567.724 423.658L627.979 407.632L620.668 436.416L525.661 461.685L575.493 255.242L670.22 230.048Z" fill="#DDDDDD"/>
</svg>
