<svg width="1024" height="1024" viewBox="0 0 1024 1024" xmlns="http://www.w3.org/2000/svg">
<path d="M754.608 352.106H719.585V313.852C719.585 302.293 710.525 292.89 699.386 292.89H675.646C673.767 292.89 671.953 293.178 670.227 293.678V285.962C670.227 274.404 661.166 265 650.028 265H610.811C599.673 265 590.612 274.403 590.612 285.962V352.106H433.385V285.962C433.385 274.404 424.325 265 413.186 265H373.969C362.832 265 353.77 274.403 353.77 285.962V293.678C352.043 293.178 350.23 292.89 348.351 292.89H324.613C313.475 292.89 304.414 302.292 304.414 313.852V352.106H269.39C265.308 352.106 262 355.539 262 359.774V419.226C262 423.461 265.308 426.894 269.39 426.894H304.414V465.148C304.414 476.707 313.474 486.11 324.613 486.11H348.352C350.231 486.11 352.045 485.821 353.771 485.322V493.038C353.771 504.596 362.832 514 373.97 514H413.187C424.325 514 433.386 504.596 433.386 493.038V426.894H590.614V493.038C590.614 504.596 599.675 514 610.813 514H650.03C661.167 514 670.229 504.597 670.229 493.038V485.322C671.956 485.822 673.769 486.11 675.648 486.11H699.388C710.526 486.11 719.587 476.708 719.587 465.148V426.894H754.61C758.692 426.894 762 423.461 762 419.226V359.774C761.998 355.539 758.69 352.106 754.608 352.106ZM304.414 411.557H276.78V367.443H304.414V411.557ZM353.771 465.149C353.771 468.249 351.34 470.773 348.352 470.773H324.613C321.626 470.773 319.194 468.251 319.194 465.149V419.226V359.774V313.851C319.194 310.75 321.626 308.227 324.613 308.227H348.352C351.34 308.227 353.771 310.75 353.771 313.851V465.149ZM418.605 359.775V419.227V493.038C418.605 496.139 416.173 498.662 413.186 498.662H373.969C370.982 498.662 368.55 496.139 368.55 493.038V465.148V313.851V285.962C368.55 282.861 370.982 280.338 373.969 280.338H413.186C416.173 280.338 418.605 282.861 418.605 285.962V359.775ZM590.612 411.557H433.385V367.443H590.612V411.557ZM655.448 313.85V465.148V493.039C655.448 496.14 653.016 498.663 650.029 498.663H610.812C607.825 498.663 605.393 496.14 605.393 493.039V419.227V359.775V285.963C605.393 282.862 607.825 280.339 610.812 280.339H650.029C653.016 280.339 655.448 282.862 655.448 285.963V313.85ZM704.806 359.774V419.226V465.149C704.806 468.251 702.374 470.773 699.387 470.773H675.647C672.66 470.773 670.228 468.251 670.228 465.149V313.851C670.228 310.75 672.66 308.227 675.647 308.227H699.387C702.374 308.227 704.806 310.75 704.806 313.851V359.774ZM747.218 411.557H719.585V367.443H747.218V411.557Z"/>
<path d="M227.898 630.451C227.898 634.872 227.169 638.859 225.711 642.414C224.253 645.969 222.156 648.999 219.422 651.506C216.733 654.012 213.406 655.949 209.441 657.316C205.522 658.684 200.828 659.367 195.359 659.367H185.311V691.223C185.311 691.587 185.197 691.906 184.969 692.18C184.786 692.453 184.467 692.681 184.012 692.863C183.602 693 183.009 693.114 182.234 693.205C181.505 693.342 180.571 693.41 179.432 693.41C178.292 693.41 177.335 693.342 176.561 693.205C175.831 693.114 175.239 693 174.783 692.863C174.327 692.681 174.008 692.453 173.826 692.18C173.644 691.906 173.553 691.587 173.553 691.223V609.602C173.553 607.779 174.031 606.48 174.988 605.705C175.945 604.93 177.016 604.543 178.201 604.543H197.137C199.051 604.543 200.874 604.634 202.605 604.816C204.383 604.953 206.456 605.295 208.826 605.842C211.242 606.343 213.68 607.323 216.141 608.781C218.647 610.194 220.766 611.949 222.498 614.045C224.23 616.141 225.551 618.579 226.463 621.359C227.42 624.094 227.898 627.124 227.898 630.451ZM215.525 631.408C215.525 627.808 214.842 624.8 213.475 622.385C212.153 619.969 210.49 618.169 208.484 616.984C206.525 615.799 204.474 615.048 202.332 614.729C200.236 614.41 198.185 614.25 196.18 614.25H185.311V649.729H195.906C199.461 649.729 202.4 649.273 204.725 648.361C207.094 647.45 209.077 646.197 210.672 644.602C212.267 642.961 213.475 641.024 214.295 638.791C215.115 636.512 215.525 634.051 215.525 631.408ZM297.283 691.291C297.283 691.656 297.192 691.975 297.01 692.248C296.873 692.476 296.6 692.681 296.189 692.863C295.779 693.046 295.232 693.182 294.549 693.273C293.911 693.365 293.113 693.41 292.156 693.41C291.108 693.41 290.242 693.365 289.559 693.273C288.921 693.182 288.396 693.046 287.986 692.863C287.622 692.681 287.371 692.476 287.234 692.248C287.098 691.975 287.029 691.656 287.029 691.291V683.156C283.52 687.03 280.057 689.855 276.639 691.633C273.221 693.41 269.757 694.299 266.248 694.299C262.146 694.299 258.683 693.615 255.857 692.248C253.077 690.881 250.822 689.035 249.09 686.711C247.358 684.341 246.105 681.607 245.33 678.508C244.601 675.363 244.236 671.558 244.236 667.092V629.768C244.236 629.403 244.305 629.107 244.441 628.879C244.624 628.605 244.943 628.378 245.398 628.195C245.854 627.967 246.447 627.831 247.176 627.785C247.905 627.694 248.816 627.648 249.91 627.648C251.004 627.648 251.915 627.694 252.645 627.785C253.374 627.831 253.943 627.967 254.354 628.195C254.809 628.378 255.128 628.605 255.311 628.879C255.493 629.107 255.584 629.403 255.584 629.768V665.588C255.584 669.188 255.835 672.082 256.336 674.27C256.883 676.411 257.68 678.257 258.729 679.807C259.822 681.311 261.189 682.495 262.83 683.361C264.471 684.182 266.385 684.592 268.572 684.592C271.398 684.592 274.201 683.589 276.98 681.584C279.806 679.579 282.791 676.639 285.936 672.766V629.768C285.936 629.403 286.004 629.107 286.141 628.879C286.323 628.605 286.642 628.378 287.098 628.195C287.553 627.967 288.123 627.831 288.807 627.785C289.536 627.694 290.47 627.648 291.609 627.648C292.703 627.648 293.615 627.694 294.344 627.785C295.073 627.831 295.643 627.967 296.053 628.195C296.463 628.378 296.759 628.605 296.941 628.879C297.169 629.107 297.283 629.403 297.283 629.768V691.291ZM354.09 633.801C354.09 634.803 354.067 635.646 354.021 636.33C353.976 637.014 353.885 637.561 353.748 637.971C353.611 638.335 353.429 638.632 353.201 638.859C353.019 639.042 352.745 639.133 352.381 639.133C352.016 639.133 351.561 639.042 351.014 638.859C350.512 638.632 349.92 638.426 349.236 638.244C348.598 638.016 347.869 637.811 347.049 637.629C346.229 637.447 345.34 637.355 344.383 637.355C343.243 637.355 342.127 637.583 341.033 638.039C339.939 638.495 338.777 639.247 337.547 640.295C336.362 641.343 335.109 642.733 333.787 644.465C332.465 646.197 331.007 648.316 329.412 650.822V691.291C329.412 691.656 329.321 691.975 329.139 692.248C328.956 692.476 328.66 692.681 328.25 692.863C327.84 693.046 327.27 693.182 326.541 693.273C325.812 693.365 324.878 693.41 323.738 693.41C322.645 693.41 321.733 693.365 321.004 693.273C320.275 693.182 319.682 693.046 319.227 692.863C318.816 692.681 318.52 692.476 318.338 692.248C318.201 691.975 318.133 691.656 318.133 691.291V629.768C318.133 629.403 318.201 629.107 318.338 628.879C318.475 628.605 318.748 628.378 319.158 628.195C319.568 627.967 320.092 627.831 320.73 627.785C321.368 627.694 322.212 627.648 323.26 627.648C324.262 627.648 325.083 627.694 325.721 627.785C326.404 627.831 326.928 627.967 327.293 628.195C327.658 628.378 327.908 628.605 328.045 628.879C328.227 629.107 328.318 629.403 328.318 629.768V638.723C330.005 636.262 331.577 634.257 333.035 632.707C334.539 631.158 335.952 629.95 337.273 629.084C338.595 628.173 339.894 627.557 341.17 627.238C342.492 626.874 343.813 626.691 345.135 626.691C345.727 626.691 346.388 626.737 347.117 626.828C347.892 626.874 348.689 626.988 349.51 627.17C350.33 627.352 351.059 627.557 351.697 627.785C352.381 628.013 352.859 628.241 353.133 628.469C353.406 628.697 353.589 628.924 353.68 629.152C353.771 629.335 353.839 629.585 353.885 629.904C353.976 630.223 354.021 630.702 354.021 631.34C354.067 631.932 354.09 632.753 354.09 633.801ZM417.527 657.863C417.527 659.641 417.072 660.917 416.16 661.691C415.294 662.421 414.292 662.785 413.152 662.785H372.82C372.82 666.203 373.162 669.279 373.846 672.014C374.529 674.748 375.669 677.095 377.264 679.055C378.859 681.014 380.932 682.518 383.484 683.566C386.036 684.615 389.158 685.139 392.85 685.139C395.766 685.139 398.364 684.911 400.643 684.455C402.921 683.954 404.881 683.407 406.521 682.814C408.208 682.222 409.575 681.698 410.623 681.242C411.717 680.741 412.537 680.49 413.084 680.49C413.403 680.49 413.676 680.581 413.904 680.764C414.178 680.9 414.383 681.128 414.52 681.447C414.656 681.766 414.747 682.222 414.793 682.814C414.884 683.361 414.93 684.045 414.93 684.865C414.93 685.458 414.907 685.982 414.861 686.438C414.816 686.848 414.747 687.235 414.656 687.6C414.611 687.919 414.497 688.215 414.314 688.488C414.178 688.762 413.973 689.035 413.699 689.309C413.471 689.536 412.742 689.947 411.512 690.539C410.281 691.086 408.686 691.633 406.727 692.18C404.767 692.727 402.488 693.205 399.891 693.615C397.339 694.071 394.604 694.299 391.688 694.299C386.629 694.299 382.186 693.592 378.357 692.18C374.575 690.767 371.385 688.671 368.787 685.891C366.189 683.111 364.23 679.624 362.908 675.432C361.587 671.239 360.926 666.363 360.926 660.803C360.926 655.516 361.609 650.777 362.977 646.584C364.344 642.346 366.303 638.768 368.855 635.852C371.453 632.889 374.575 630.633 378.221 629.084C381.867 627.489 385.945 626.691 390.457 626.691C395.288 626.691 399.389 627.466 402.762 629.016C406.18 630.565 408.982 632.661 411.17 635.305C413.357 637.902 414.952 640.979 415.955 644.533C417.003 648.042 417.527 651.802 417.527 655.812V657.863ZM406.18 654.514C406.316 648.589 404.995 643.941 402.215 640.568C399.48 637.196 395.402 635.51 389.979 635.51C387.199 635.51 384.76 636.034 382.664 637.082C380.568 638.13 378.813 639.52 377.4 641.252C375.988 642.984 374.894 645.012 374.119 647.336C373.344 649.615 372.911 652.007 372.82 654.514H406.18ZM552.469 690.402C552.286 691.04 552.013 691.564 551.648 691.975C551.284 692.339 550.783 692.635 550.145 692.863C549.507 693.046 548.709 693.182 547.752 693.273C546.84 693.365 545.701 693.41 544.334 693.41C542.921 693.41 541.714 693.365 540.711 693.273C539.754 693.182 538.956 693.046 538.318 692.863C537.68 692.635 537.202 692.339 536.883 691.975C536.564 691.564 536.313 691.04 536.131 690.402L517.605 623.615H517.469L500.379 690.402C500.242 691.04 500.014 691.564 499.695 691.975C499.376 692.339 498.921 692.635 498.328 692.863C497.736 693.046 496.961 693.182 496.004 693.273C495.092 693.365 493.908 693.41 492.449 693.41C490.945 693.41 489.692 693.365 488.689 693.273C487.687 693.182 486.867 693.046 486.229 692.863C485.59 692.635 485.089 692.339 484.725 691.975C484.406 691.564 484.178 691.04 484.041 690.402L460.662 608.713C460.389 607.665 460.229 606.844 460.184 606.252C460.184 605.66 460.366 605.204 460.73 604.885C461.141 604.566 461.779 604.361 462.645 604.27C463.51 604.178 464.673 604.133 466.131 604.133C467.544 604.133 468.66 604.178 469.48 604.27C470.301 604.315 470.916 604.429 471.326 604.611C471.782 604.794 472.078 605.044 472.215 605.363C472.397 605.682 472.534 606.092 472.625 606.594L492.518 680.695H492.586L511.453 606.73C511.59 606.229 511.749 605.819 511.932 605.5C512.16 605.135 512.501 604.862 512.957 604.68C513.413 604.497 514.051 604.361 514.871 604.27C515.737 604.178 516.854 604.133 518.221 604.133C519.497 604.133 520.499 604.178 521.229 604.27C522.003 604.361 522.618 604.497 523.074 604.68C523.53 604.862 523.849 605.135 524.031 605.5C524.259 605.819 524.441 606.229 524.578 606.73L544.881 680.695H545.018L564.5 606.662C564.637 606.206 564.773 605.819 564.91 605.5C565.047 605.135 565.32 604.862 565.73 604.68C566.186 604.497 566.801 604.361 567.576 604.27C568.396 604.178 569.467 604.133 570.789 604.133C572.156 604.133 573.227 604.201 574.002 604.338C574.822 604.429 575.415 604.634 575.779 604.953C576.144 605.272 576.303 605.728 576.258 606.32C576.258 606.913 576.144 607.733 575.916 608.781L552.469 690.402ZM638.328 657.863C638.328 659.641 637.872 660.917 636.961 661.691C636.095 662.421 635.092 662.785 633.953 662.785H593.621C593.621 666.203 593.963 669.279 594.646 672.014C595.33 674.748 596.469 677.095 598.064 679.055C599.66 681.014 601.733 682.518 604.285 683.566C606.837 684.615 609.959 685.139 613.65 685.139C616.567 685.139 619.165 684.911 621.443 684.455C623.722 683.954 625.682 683.407 627.322 682.814C629.008 682.222 630.376 681.698 631.424 681.242C632.518 680.741 633.338 680.49 633.885 680.49C634.204 680.49 634.477 680.581 634.705 680.764C634.979 680.9 635.184 681.128 635.32 681.447C635.457 681.766 635.548 682.222 635.594 682.814C635.685 683.361 635.73 684.045 635.73 684.865C635.73 685.458 635.708 685.982 635.662 686.438C635.617 686.848 635.548 687.235 635.457 687.6C635.411 687.919 635.298 688.215 635.115 688.488C634.979 688.762 634.773 689.035 634.5 689.309C634.272 689.536 633.543 689.947 632.312 690.539C631.082 691.086 629.487 691.633 627.527 692.18C625.568 692.727 623.289 693.205 620.691 693.615C618.139 694.071 615.405 694.299 612.488 694.299C607.43 694.299 602.986 693.592 599.158 692.18C595.376 690.767 592.186 688.671 589.588 685.891C586.99 683.111 585.031 679.624 583.709 675.432C582.387 671.239 581.727 666.363 581.727 660.803C581.727 655.516 582.41 650.777 583.777 646.584C585.145 642.346 587.104 638.768 589.656 635.852C592.254 632.889 595.376 630.633 599.021 629.084C602.667 627.489 606.746 626.691 611.258 626.691C616.089 626.691 620.19 627.466 623.562 629.016C626.98 630.565 629.783 632.661 631.971 635.305C634.158 637.902 635.753 640.979 636.756 644.533C637.804 648.042 638.328 651.802 638.328 655.812V657.863ZM626.98 654.514C627.117 648.589 625.796 643.941 623.016 640.568C620.281 637.196 616.202 635.51 610.779 635.51C607.999 635.51 605.561 636.034 603.465 637.082C601.368 638.13 599.614 639.52 598.201 641.252C596.788 642.984 595.695 645.012 594.92 647.336C594.145 649.615 593.712 652.007 593.621 654.514H626.98ZM666.834 691.291C666.834 691.656 666.743 691.975 666.561 692.248C666.378 692.476 666.082 692.681 665.672 692.863C665.262 693.046 664.692 693.182 663.963 693.273C663.234 693.365 662.299 693.41 661.16 693.41C660.066 693.41 659.155 693.365 658.426 693.273C657.697 693.182 657.104 693.046 656.648 692.863C656.238 692.681 655.942 692.476 655.76 692.248C655.623 691.975 655.555 691.656 655.555 691.291V629.768C655.555 629.449 655.623 629.152 655.76 628.879C655.942 628.605 656.238 628.378 656.648 628.195C657.104 628.013 657.697 627.876 658.426 627.785C659.155 627.694 660.066 627.648 661.16 627.648C662.299 627.648 663.234 627.694 663.963 627.785C664.692 627.876 665.262 628.013 665.672 628.195C666.082 628.378 666.378 628.605 666.561 628.879C666.743 629.152 666.834 629.449 666.834 629.768V691.291ZM668.133 608.986C668.133 611.63 667.632 613.43 666.629 614.387C665.626 615.344 663.781 615.822 661.092 615.822C658.449 615.822 656.626 615.367 655.623 614.455C654.666 613.498 654.188 611.721 654.188 609.123C654.188 606.48 654.689 604.68 655.691 603.723C656.694 602.766 658.54 602.287 661.229 602.287C663.872 602.287 665.672 602.766 666.629 603.723C667.632 604.634 668.133 606.389 668.133 608.986ZM739.09 632.57C739.09 634.165 738.862 635.327 738.406 636.057C737.996 636.74 737.449 637.082 736.766 637.082H727.947C729.542 638.723 730.659 640.546 731.297 642.551C731.935 644.51 732.254 646.561 732.254 648.703C732.254 652.258 731.684 655.402 730.545 658.137C729.406 660.871 727.765 663.195 725.623 665.109C723.527 666.978 721.02 668.413 718.104 669.416C715.187 670.419 711.951 670.92 708.396 670.92C705.89 670.92 703.497 670.601 701.219 669.963C698.986 669.279 697.254 668.436 696.023 667.434C695.203 668.254 694.52 669.188 693.973 670.236C693.471 671.285 693.221 672.492 693.221 673.859C693.221 675.454 693.95 676.776 695.408 677.824C696.912 678.872 698.895 679.442 701.355 679.533L717.42 680.217C720.473 680.308 723.276 680.741 725.828 681.516C728.38 682.245 730.59 683.316 732.459 684.729C734.327 686.096 735.786 687.805 736.834 689.855C737.882 691.861 738.406 694.208 738.406 696.896C738.406 699.722 737.814 702.411 736.629 704.963C735.444 707.515 733.621 709.748 731.16 711.662C728.745 713.622 725.646 715.148 721.863 716.242C718.081 717.382 713.615 717.951 708.465 717.951C703.497 717.951 699.259 717.518 695.75 716.652C692.286 715.832 689.438 714.693 687.205 713.234C684.972 711.776 683.354 710.021 682.352 707.971C681.349 705.965 680.848 703.778 680.848 701.408C680.848 699.904 681.03 698.446 681.395 697.033C681.759 695.62 682.306 694.276 683.035 693C683.81 691.724 684.744 690.516 685.838 689.377C686.977 688.192 688.276 687.03 689.734 685.891C687.501 684.751 685.838 683.316 684.744 681.584C683.696 679.852 683.172 677.984 683.172 675.979C683.172 673.199 683.742 670.715 684.881 668.527C686.02 666.34 687.433 664.38 689.119 662.648C687.706 660.962 686.59 659.071 685.77 656.975C684.949 654.833 684.539 652.258 684.539 649.25C684.539 645.741 685.132 642.596 686.316 639.816C687.501 637.036 689.142 634.689 691.238 632.775C693.335 630.861 695.841 629.403 698.758 628.4C701.72 627.352 704.933 626.828 708.396 626.828C710.265 626.828 711.997 626.942 713.592 627.17C715.232 627.352 716.759 627.626 718.172 627.99H736.766C737.54 627.99 738.11 628.378 738.475 629.152C738.885 629.882 739.09 631.021 739.09 632.57ZM721.453 648.771C721.453 644.579 720.291 641.32 717.967 638.996C715.688 636.626 712.43 635.441 708.191 635.441C706.004 635.441 704.09 635.806 702.449 636.535C700.854 637.264 699.51 638.267 698.416 639.543C697.368 640.819 696.57 642.3 696.023 643.986C695.522 645.627 695.271 647.359 695.271 649.182C695.271 653.238 696.411 656.428 698.689 658.752C701.014 661.076 704.249 662.238 708.396 662.238C710.63 662.238 712.566 661.896 714.207 661.213C715.848 660.484 717.192 659.504 718.24 658.273C719.334 656.997 720.132 655.539 720.633 653.898C721.18 652.258 721.453 650.549 721.453 648.771ZM727.127 697.512C727.127 694.868 726.033 692.84 723.846 691.428C721.704 689.969 718.787 689.195 715.096 689.104L699.168 688.557C697.71 689.696 696.502 690.79 695.545 691.838C694.633 692.84 693.904 693.798 693.357 694.709C692.811 695.666 692.423 696.6 692.195 697.512C692.013 698.423 691.922 699.357 691.922 700.314C691.922 703.277 693.426 705.51 696.434 707.014C699.441 708.563 703.634 709.338 709.012 709.338C712.43 709.338 715.278 708.996 717.557 708.312C719.881 707.674 721.749 706.809 723.162 705.715C724.575 704.621 725.577 703.368 726.17 701.955C726.808 700.542 727.127 699.061 727.127 697.512ZM806.561 691.291C806.561 691.656 806.469 691.975 806.287 692.248C806.105 692.476 805.809 692.681 805.398 692.863C804.988 693.046 804.419 693.182 803.689 693.273C802.96 693.365 802.049 693.41 800.955 693.41C799.816 693.41 798.882 693.365 798.152 693.273C797.423 693.182 796.854 693.046 796.443 692.863C796.033 692.681 795.737 692.476 795.555 692.248C795.372 691.975 795.281 691.656 795.281 691.291V655.266C795.281 651.757 795.008 648.931 794.461 646.789C793.914 644.647 793.117 642.801 792.068 641.252C791.02 639.702 789.653 638.518 787.967 637.697C786.326 636.877 784.412 636.467 782.225 636.467C779.399 636.467 776.574 637.469 773.748 639.475C770.923 641.48 767.96 644.419 764.861 648.293V691.291C764.861 691.656 764.77 691.975 764.588 692.248C764.406 692.476 764.109 692.681 763.699 692.863C763.289 693.046 762.719 693.182 761.99 693.273C761.261 693.365 760.327 693.41 759.188 693.41C758.094 693.41 757.182 693.365 756.453 693.273C755.724 693.182 755.132 693.046 754.676 692.863C754.266 692.681 753.969 692.476 753.787 692.248C753.65 691.975 753.582 691.656 753.582 691.291V599.963C753.582 599.598 753.65 599.279 753.787 599.006C753.969 598.732 754.266 598.505 754.676 598.322C755.132 598.14 755.724 598.003 756.453 597.912C757.182 597.821 758.094 597.775 759.188 597.775C760.327 597.775 761.261 597.821 761.99 597.912C762.719 598.003 763.289 598.14 763.699 598.322C764.109 598.505 764.406 598.732 764.588 599.006C764.77 599.279 764.861 599.598 764.861 599.963V636.809C768.097 633.391 771.355 630.861 774.637 629.221C777.918 627.535 781.222 626.691 784.549 626.691C788.65 626.691 792.091 627.398 794.871 628.811C797.697 630.178 799.975 632.023 801.707 634.348C803.439 636.672 804.669 639.406 805.398 642.551C806.173 645.65 806.561 649.41 806.561 653.83V691.291ZM857.762 686.779C857.762 688.101 857.671 689.149 857.488 689.924C857.306 690.699 857.033 691.268 856.668 691.633C856.303 691.997 855.757 692.339 855.027 692.658C854.298 692.977 853.455 693.228 852.498 693.41C851.587 693.638 850.607 693.82 849.559 693.957C848.51 694.094 847.462 694.162 846.414 694.162C843.224 694.162 840.49 693.752 838.211 692.932C835.932 692.066 834.064 690.79 832.605 689.104C831.147 687.372 830.076 685.207 829.393 682.609C828.755 679.966 828.436 676.867 828.436 673.312V637.355H819.822C819.139 637.355 818.592 636.991 818.182 636.262C817.771 635.533 817.566 634.348 817.566 632.707C817.566 631.841 817.612 631.112 817.703 630.52C817.84 629.927 817.999 629.449 818.182 629.084C818.364 628.674 818.592 628.4 818.865 628.264C819.184 628.081 819.526 627.99 819.891 627.99H828.436V613.361C828.436 613.042 828.504 612.746 828.641 612.473C828.823 612.199 829.119 611.971 829.529 611.789C829.985 611.561 830.577 611.402 831.307 611.311C832.036 611.219 832.947 611.174 834.041 611.174C835.18 611.174 836.115 611.219 836.844 611.311C837.573 611.402 838.143 611.561 838.553 611.789C838.963 611.971 839.259 612.199 839.441 612.473C839.624 612.746 839.715 613.042 839.715 613.361V627.99H855.506C855.87 627.99 856.189 628.081 856.463 628.264C856.736 628.4 856.964 628.674 857.146 629.084C857.374 629.449 857.534 629.927 857.625 630.52C857.716 631.112 857.762 631.841 857.762 632.707C857.762 634.348 857.557 635.533 857.146 636.262C856.736 636.991 856.189 637.355 855.506 637.355H839.715V671.672C839.715 675.91 840.33 679.123 841.561 681.311C842.837 683.452 845.092 684.523 848.328 684.523C849.376 684.523 850.311 684.432 851.131 684.25C851.951 684.022 852.68 683.794 853.318 683.566C853.956 683.339 854.503 683.133 854.959 682.951C855.415 682.723 855.825 682.609 856.189 682.609C856.417 682.609 856.622 682.678 856.805 682.814C857.033 682.906 857.192 683.111 857.283 683.43C857.42 683.749 857.534 684.182 857.625 684.729C857.716 685.275 857.762 685.959 857.762 686.779Z" />
</svg>
