<svg width="300" height="197" viewBox="0 0 300 197" fill="none" xmlns="http://www.w3.org/2000/svg">
<g clip-path="url(#clip0_1_2)">
<path d="M102.106 103.4L77.6663 160.585L64.8244 162.849L72.5307 118.716L53.1643 164.905L40.4012 167.156L49.7926 112.624L59.4044 110.93L49.9712 157.587L70.7493 108.929L81.1489 107.095L72.9763 153.53L92.7303 105.053L102.106 103.4ZM134.595 97.6715L131.041 105.568L115.52 108.304L110.668 124.311L124.456 121.88L122.097 129.488L108.388 131.906L103.245 148.729L120.184 145.742L117.719 153.522L91.0111 158.232L107.966 102.367L134.595 97.6715ZM151.59 94.6749L134.714 150.526L124.787 152.276L141.742 96.4114L151.59 94.6749ZM180.779 88.4568C186.399 87.4658 190.634 88.7851 193.484 92.4147L186.956 98.4629C185.831 97.284 184.687 96.5164 183.525 96.1602C182.415 95.7948 180.993 95.7649 179.26 96.0705C175.688 96.7003 172.458 98.7748 169.569 102.294C166.688 105.761 164.296 109.957 162.391 114.885C160.548 119.75 159.207 124.654 158.37 129.597C157.746 133.278 157.865 135.884 158.727 137.415C159.641 138.938 161.253 139.495 163.564 139.087C165.928 138.671 168.442 137.513 171.108 135.615L175.536 120.754L169.47 121.824L170.897 114.303L187.363 111.4L179.262 138.462C173.185 143.053 167.284 145.854 161.559 146.863C156.202 147.808 152.412 146.869 150.189 144.047C147.967 141.226 147.403 136.581 148.499 130.113C149.568 123.803 151.551 117.663 154.448 111.694C157.406 105.663 161.127 100.543 165.61 96.3348C170.155 92.0645 175.211 89.4385 180.779 88.4568ZM196.11 139.7L186.184 141.45L203.138 85.5855L212.986 83.849L206.185 106.397L220.052 103.952L226.852 81.404L236.779 79.6537L219.903 135.504L209.976 137.255L217.586 112.192L203.719 114.637L196.11 139.7ZM275.689 72.7928L272.199 81.2132L261.169 83.1581L246.759 130.769L236.832 132.519L251.242 84.9085L239.582 86.9645L242.048 78.7246L275.689 72.7928Z" fill="#DDDDDD"/>
<path d="M59.8959 55.8992C65.2532 54.9545 69.1362 55.4941 71.5448 57.5181C74.0149 59.4802 74.849 62.8275 74.0473 67.56C73.4058 71.3461 72.0563 74.9509 69.9986 78.3745C67.9498 81.7456 65.1894 84.6554 61.7173 87.1041C58.2452 89.5528 54.1718 91.1893 49.4973 92.0136L45.7944 92.6665L39.8685 112.306L29.9416 114.056L46.8964 58.1913L59.8959 55.8992ZM50.9243 84.4926C54.8636 83.798 57.8304 82.076 59.8248 79.3267C61.8806 76.5156 63.2292 73.217 63.8707 69.431C64.3161 66.8018 64.0284 65.0415 63.0074 64.1503C62.039 63.2498 60.268 63.0264 57.6943 63.4802L54.4642 64.0498L48.1669 84.9788L50.9243 84.4926ZM105.386 86.291C104.466 89.3098 102.983 92.1985 100.937 94.957C98.8985 97.663 96.4199 99.962 93.5007 101.854C90.5814 103.746 87.3361 105.007 83.7645 105.637C78.8273 106.507 75.2684 105.86 73.0876 103.694C70.9595 101.518 70.2339 98.4322 70.911 94.4358C71.0713 93.4893 71.3015 92.5815 71.6016 91.7124L83.7313 51.6963L93.5794 49.9598L81.2894 90.9224C81.0418 91.7823 80.8913 92.37 80.8378 92.6855C80.5171 94.5785 80.7359 95.9938 81.4942 96.9314C82.314 97.8071 83.7218 98.069 85.7177 97.717C88.1338 97.291 90.18 96.1905 91.8565 94.4155C93.533 92.6405 94.76 90.5112 95.5374 88.0275L107.682 47.4732L117.609 45.7228L105.386 86.291ZM153.777 52.5068C153.144 56.2403 151.686 59.7368 149.401 62.9964C147.125 66.2034 144.085 68.9585 140.281 71.2617L144.242 93.9019L134 95.7078L131.018 74.9611L126.146 75.7435L119.346 98.2917L109.419 100.042L126.373 44.1774L139.215 41.913C144.835 40.922 148.837 41.3643 151.22 43.2397C153.655 45.1059 154.507 48.1949 153.777 52.5068ZM131.788 67.709C135.307 67.0885 138.015 65.5397 139.912 63.0626C141.81 60.5855 143.026 57.7694 143.56 54.6144C143.952 52.3007 143.655 50.7461 142.669 49.9508C141.744 49.0936 140.1 48.8734 137.736 49.2901L133.955 49.9569L128.4 68.3063L131.788 67.709ZM192.78 32.4682L189.225 40.3642L173.705 43.1009L168.853 59.1074L182.64 56.6763L180.281 64.2851L166.573 66.7023L161.43 83.5253L178.368 80.5385L175.904 88.319L149.196 93.0283L166.151 37.1636L192.78 32.4682Z" fill="#DDDDDD"/>
</g>
<defs>
<clipPath id="clip0_1_2">
<rect width="300" height="196.173" fill="white"/>
</clipPath>
</defs>
</svg>
