<svg width="300" height="300" viewBox="0 0 300 300" fill="none" xmlns="http://www.w3.org/2000/svg">
<g filter="url(#filter0_d_1_12)">
<path d="M261.83 114.352H244.441V94.7644C244.441 88.846 239.942 84.0309 234.412 84.0309H222.625C221.692 84.0309 220.792 84.1783 219.935 84.4346V80.4835C219.935 74.5651 215.436 69.75 209.906 69.75H190.435C184.905 69.75 180.406 74.5646 180.406 80.4835V114.352H102.343V80.4835C102.343 74.5651 97.8441 69.75 92.3138 69.75H72.8427C67.3129 69.75 62.8139 74.5646 62.8139 80.4835V84.4346C61.9562 84.1783 61.0563 84.0309 60.1234 84.0309H48.3374C42.8075 84.0309 38.3085 88.8455 38.3085 94.7644V114.352H20.9189C18.8922 114.352 17.25 116.11 17.25 118.279V148.721C17.25 150.89 18.8922 152.648 20.9189 152.648H38.3085V172.236C38.3085 178.154 42.807 182.969 48.3374 182.969H60.1239C61.0567 182.969 61.9571 182.821 62.8144 182.565V186.516C62.8144 192.435 67.3129 197.25 72.8432 197.25H92.3143C97.8441 197.25 102.343 192.435 102.343 186.516V152.648H180.407V186.516C180.407 192.435 184.906 197.25 190.436 197.25H209.907C215.437 197.25 219.936 192.435 219.936 186.516V182.565C220.793 182.822 221.693 182.969 222.626 182.969H234.413C239.943 182.969 244.442 178.154 244.442 172.236V152.648H261.831C263.858 152.648 265.5 150.89 265.5 148.721V118.279C265.499 116.11 263.857 114.352 261.83 114.352ZM38.3085 144.794H24.5884V122.206H38.3085V144.794ZM62.8144 172.236C62.8144 173.824 61.6075 175.116 60.1239 175.116H48.3374C46.8542 175.116 45.6469 173.824 45.6469 172.236V148.721V118.279V94.7639C45.6469 93.176 46.8542 91.8843 48.3374 91.8843H60.1239C61.6075 91.8843 62.8144 93.176 62.8144 94.7639V172.236ZM95.0043 118.28V148.721V186.516C95.0043 188.104 93.797 189.396 92.3138 189.396H72.8427C71.3596 189.396 70.1523 188.104 70.1523 186.516V172.236V94.7639V80.4835C70.1523 78.8956 71.3596 77.604 72.8427 77.604H92.3138C93.797 77.604 95.0043 78.8956 95.0043 80.4835V118.28ZM180.406 144.794H102.343V122.206H180.406V144.794ZM212.597 94.7633V172.236V186.517C212.597 188.105 211.389 189.397 209.906 189.397H190.435C188.952 189.397 187.745 188.105 187.745 186.517V148.721V118.28V80.484C187.745 78.8961 188.952 77.6045 190.435 77.6045H209.906C211.389 77.6045 212.597 78.8961 212.597 80.484V94.7633ZM237.103 118.279V148.721V172.236C237.103 173.824 235.896 175.116 234.413 175.116H222.626C221.142 175.116 219.935 173.824 219.935 172.236V94.7639C219.935 93.176 221.142 91.8843 222.626 91.8843H234.413C235.896 91.8843 237.103 93.176 237.103 94.7639V118.279ZM258.161 144.794H244.441V122.206H258.161V144.794Z" fill="#888888"/>
</g>
<g filter="url(#filter1_d_1_12)">
<path d="M175.25 193.25H181.25V199.25H175.25V193.25ZM179.25 159.25C189.95 159.69 194.61 170.49 188.25 178.59C186.59 180.59 183.91 181.91 182.59 183.59C181.25 185.25 181.25 187.25 181.25 189.25H175.25C175.25 185.91 175.25 183.09 176.59 181.09C177.91 179.09 180.59 177.91 182.25 176.59C187.09 172.11 185.89 165.77 179.25 165.25C177.659 165.25 176.133 165.882 175.007 167.007C173.882 168.133 173.25 169.659 173.25 171.25H167.25C167.25 168.067 168.514 165.015 170.765 162.765C173.015 160.514 176.067 159.25 179.25 159.25Z" fill="#CCCCCC"/>
</g>
<g filter="url(#filter2_d_1_12)">
<path d="M178 127C191.791 127 205.018 132.479 214.77 142.23C224.521 151.982 230 165.209 230 179C230 191.88 225.28 203.72 217.52 212.84L219.68 215H226L266 255L254 267L214 227V220.68L211.84 218.52C202.72 226.28 190.88 231 178 231C164.209 231 150.982 225.521 141.23 215.77C131.479 206.018 126 192.791 126 179C126 165.209 131.479 151.982 141.23 142.23C150.982 132.479 164.209 127 178 127ZM178 143C158 143 142 159 142 179C142 199 158 215 178 215C198 215 214 199 214 179C214 159 198 143 178 143Z" fill="#CCCCCC"/>
</g>
<defs>
<filter id="filter0_d_1_12" x="13.25" y="69.75" width="256.25" height="135.5" filterUnits="userSpaceOnUse" color-interpolation-filters="sRGB">
<feFlood flood-opacity="0" result="BackgroundImageFix"/>
<feColorMatrix in="SourceAlpha" type="matrix" values="0 0 0 0 0 0 0 0 0 0 0 0 0 0 0 0 0 0 127 0" result="hardAlpha"/>
<feOffset dy="4"/>
<feGaussianBlur stdDeviation="2"/>
<feComposite in2="hardAlpha" operator="out"/>
<feColorMatrix type="matrix" values="0 0 0 0 0 0 0 0 0 0 0 0 0 0 0 0 0 0 0.25 0"/>
<feBlend mode="normal" in2="BackgroundImageFix" result="effect1_dropShadow_1_12"/>
<feBlend mode="normal" in="SourceGraphic" in2="effect1_dropShadow_1_12" result="shape"/>
</filter>
<filter id="filter1_d_1_12" x="150.25" y="142.25" width="53.8861" height="70" filterUnits="userSpaceOnUse" color-interpolation-filters="sRGB">
<feFlood flood-opacity="0" result="BackgroundImageFix"/>
<feColorMatrix in="SourceAlpha" type="matrix" values="0 0 0 0 0 0 0 0 0 0 0 0 0 0 0 0 0 0 127 0" result="hardAlpha"/>
<feOffset dx="-2" dy="-2"/>
<feGaussianBlur stdDeviation="7.5"/>
<feComposite in2="hardAlpha" operator="out"/>
<feColorMatrix type="matrix" values="0 0 0 0 0 0 0 0 0 0 0 0 0 0 0 0 0 0 1 0"/>
<feBlend mode="normal" in2="BackgroundImageFix" result="effect1_dropShadow_1_12"/>
<feBlend mode="normal" in="SourceGraphic" in2="effect1_dropShadow_1_12" result="shape"/>
</filter>
<filter id="filter2_d_1_12" x="109" y="110" width="170" height="170" filterUnits="userSpaceOnUse" color-interpolation-filters="sRGB">
<feFlood flood-opacity="0" result="BackgroundImageFix"/>
<feColorMatrix in="SourceAlpha" type="matrix" values="0 0 0 0 0 0 0 0 0 0 0 0 0 0 0 0 0 0 127 0" result="hardAlpha"/>
<feOffset dx="-2" dy="-2"/>
<feGaussianBlur stdDeviation="7.5"/>
<feComposite in2="hardAlpha" operator="out"/>
<feColorMatrix type="matrix" values="0 0 0 0 0 0 0 0 0 0 0 0 0 0 0 0 0 0 1 0"/>
<feBlend mode="normal" in2="BackgroundImageFix" result="effect1_dropShadow_1_12"/>
<feBlend mode="normal" in="SourceGraphic" in2="effect1_dropShadow_1_12" result="shape"/>
</filter>
</defs>
</svg>
