<svg xmlns="http://www.w3.org/2000/svg" viewBox="0 0 66 66" width="256" height="256">
    <path d="M39.22 29.57c-2.09-2.09-4.88-3.25-7.85-3.25s-5.76 1.15-7.85 3.25-3.25 4.88-3.25 7.85c0 2.97 1.15 5.76 3.25 7.85 2.09 2.09 4.88 3.25 7.85 3.25 2.97 0 5.76-1.15 7.85-3.25 4.32-4.33 4.32-11.37 0-15.7zm-1.06 14.64a9.537 9.537 0 0 1-6.79 2.81c-2.57 0-4.98-1-6.79-2.81s-2.81-4.22-2.81-6.79c0-2.57 1-4.98 2.81-6.79s4.22-2.81 6.79-2.81 4.98 1 6.79 2.81c3.74 3.74 3.74 9.83 0 13.58z"/>
    <path d="m57.54 58-9.24-9.24a3.935 3.935 0 0 0-3.25-1.13l-1.33-1.33C48 40.35 47.48 32 42.14 26.65c-5.94-5.94-15.6-5.94-21.54 0-5.94 5.94-5.94 15.6 0 21.54 2.97 2.97 6.87 4.45 10.77 4.45 3.12 0 6.24-.97 8.88-2.87l1.33 1.33c-.14 1.2.27 2.39 1.13 3.24l9.24 9.25a3.961 3.961 0 0 0 5.6 0c.75-.75 1.16-1.74 1.16-2.8A3.996 3.996 0 0 0 57.54 58zM21.65 47.13c-5.35-5.35-5.35-14.07 0-19.42 2.68-2.68 6.19-4.02 9.71-4.02s7.03 1.34 9.71 4.02c5.35 5.35 5.35 14.07 0 19.42-5.35 5.35-14.06 5.35-19.42 0zm34.83 15.4c-.96.96-2.52.96-3.47 0l-9.24-9.24a2.45 2.45 0 0 1-.65-2.28.735.735 0 0 0-.2-.69l-1.47-1.47c.01-.01.02-.03.03-.05.22-.2.46-.39.67-.61.22-.22.41-.45.61-.68.01-.01.03-.01.04-.02l1.47 1.47c.18.18.44.26.69.2.83-.19 1.68.06 2.28.65l9.24 9.25a2.45 2.45 0 0 1 0 3.47z"
    />
    <path d="M35.72 33.06a.754.754 0 0 0-1.06 0l-3.29 3.29-3.29-3.29a.754.754 0 0 0-1.06 0c-.29.29-.29.77 0 1.06l3.29 3.3-3.29 3.29c-.29.29-.29.77 0 1.06.15.15.34.22.53.22s.38-.07.53-.22l3.29-3.29 3.29 3.29c.15.15.34.22.53.22s.38-.07.53-.22c.29-.29.29-.77 0-1.06l-3.29-3.29 3.29-3.3c.29-.29.29-.76 0-1.06zM23.92 7.2h18.95c.41 0 .75-.34.75-.75s-.34-.75-.75-.75H23.92c-.41 0-.75.34-.75.75s.34.75.75.75zm18.96 2.47H23.91c-.41 0-.75.34-.75.75s.34.75.75.75h18.97c.41 0 .75-.34.75-.75s-.34-.75-.75-.75zm0 4.01h-9.96c-.41 0-.75.34-.75.75s.34.75.75.75h9.96c.41 0 .75-.34.75-.75s-.34-.75-.75-.75zm0 4h-9.96c-.41 0-.75.34-.75.75s.34.75.75.75h9.96c.41 0 .75-.34.75-.75s-.34-.75-.75-.75z"
    />
    <path d="M45.26 59.34H12.79v-2.48h28.49c.41 0 .75-.34.75-.75s-.34-.75-.75-.75H8.8V12.98h9.48c.41 0 .75-.34.75-.75V2.75h28.72v43.4c0 .41.34.75.75.75s.75-.34.75-.75V6.73h2.48v43.03c0 .41.34.75.75.75s.75-.34.75-.75V5.98c0-.41-.34-.75-.75-.75h-3.23V2c0-.41-.34-.75-.75-.75H18.29c-.2 0-.39.08-.53.22L7.52 11.7a.75.75 0 0 0-.22.53V56.1c0 .41.34.75.75.75h3.23v3.23c0 .41.34.75.75.75h33.22c.41 0 .75-.34.75-.75s-.33-.74-.74-.74zM9.86 11.48l7.67-7.67v7.67H9.86z"
    />
</svg>