<svg xmlns="http://www.w3.org/2000/svg" data-name="Layer 1" viewBox="0 0 64 64" width="256" height="256">
    <path d="M60 31h-4v-1a3 3 0 0 0-3-3h-8a3 3 0 0 0-3 3v7.809A64.926 64.926 0 0 0 32 37a64.926 64.926 0 0 0-10 .809V30a3 3 0 0 0-3-3h-8a3 3 0 0 0-3 3v1H4a4 4 0 0 0-4 4v18a4 4 0 0 0 4 4h4v1a3 3 0 0 0 3 3h8a3 3 0 0 0 3-3v-7.809A64.926 64.926 0 0 0 32 51a64.926 64.926 0 0 0 10-.809V58a3 3 0 0 0 3 3h8a3 3 0 0 0 3-3v-1h4a4 4 0 0 0 4-4V35a4 4 0 0 0-4-4ZM4 55a2 2 0 0 1-2-2V35a2 2 0 0 1 2-2h4v22Zm16 3a.989.989 0 0 1-1 1h-8a.989.989 0 0 1-1-1V30a.989.989 0 0 1 1-1h8a.989.989 0 0 1 1 1Zm12-9a63.458 63.458 0 0 1-10-.838v-8.324A63.458 63.458 0 0 1 32 39a63.458 63.458 0 0 1 10 .838v8.324A63.458 63.458 0 0 1 32 49Zm30 4a2 2 0 0 1-2 2h-4v-3a1 1 0 0 0-2 0v6a.989.989 0 0 1-1 1h-8a.989.989 0 0 1-1-1V30a.989.989 0 0 1 1-1h8a.989.989 0 0 1 1 1v17a1 1 0 0 0 2 0V33h4a2 2 0 0 1 2 2Z" />
</svg>